<svg xmlns="http://www.w3.org/2000/svg" xmlns:xlink="http://www.w3.org/1999/xlink" viewBox="0 0 203.09 216.66"><defs><linearGradient id="a" x1="287.01" y1="408.12" x2="480.98" y2="408.12" gradientTransform="matrix(1, 0, 0, -1, 0, 770)" gradientUnits="userSpaceOnUse"><stop offset="0" stop-color="#e32726"/><stop offset="0.16" stop-color="#db2727"/><stop offset="0.4" stop-color="#c62628"/><stop offset="0.7" stop-color="#a3242b"/><stop offset="1" stop-color="#79222e"/></linearGradient><radialGradient id="b" cx="384" cy="386" r="104.99" gradientTransform="matrix(1, 0, 0, -1, 0, 770)" gradientUnits="userSpaceOnUse"><stop offset="0" stop-color="#0f98d5"/><stop offset="0.14" stop-color="#1091cd"/><stop offset="0.36" stop-color="#127eb8"/><stop offset="0.62" stop-color="#155f95"/><stop offset="0.92" stop-color="#193465"/><stop offset="1" stop-color="#1a2857"/></radialGradient></defs><title>MLS logo - Brandlogos.net</title><path d="M481,280.22H287V357.4a135.23,135.23,0,0,0,30.81,86.14L481,280.37Z" transform="translate(-282.45 -275.67)" style="fill:url(#a)"/><path d="M384,487.57A135.87,135.87,0,0,0,481,357.4v-77L317.81,443.54a135.94,135.94,0,0,0,66.18,44" transform="translate(-282.45 -275.67)" style="fill:#fff"/><path d="M318.7,421.33l-1.2,1.19,3.29,3.3-.75.76-3.32-3.29-1.2,1.19-.62-.62,3.15-3.15Zm5.13-.82-1.71-3.84,1.09-1.09,3.91,3.91-.71.71-3-3.06,0,0,1.89,4.23-.53.53L320.47,420l0,0,3.06,3.06-.71.71-3.91-3.91,1.1-1.1Z" transform="translate(-282.45 -275.67)" style="fill:#1a2857"/><polygon points="77.97 81.63 80.44 89.24 73.96 84.54 67.48 89.24 69.96 81.63 63.48 76.92 71.49 76.92 73.96 69.3 76.44 76.92 84.44 76.92 77.97 81.63" style="fill:#fff"/><polygon points="40.68 81.63 47.16 76.92 39.15 76.92 36.67 69.3 34.2 76.92 26.18 76.92 32.67 81.63 30.19 89.24 36.67 84.54 43.15 89.24 40.68 81.63" style="fill:#fff"/><polygon points="57.79 101.72 55.32 94.1 52.84 101.72 44.83 101.72 51.31 106.43 48.84 114.05 55.32 109.34 61.8 114.05 59.32 106.43 65.8 101.72 57.79 101.72" style="fill:#fff"/><path d="M316,327.47l-7.34-16.73h-.23v22.33a.55.55,0,0,1-.51.59h-6.66a.55.55,0,0,1-.59-.59V294.58a.55.55,0,0,1,.52-.58h7a.9.9,0,0,1,.93.58l10,22.62h.23l9.85-22.62a.9.9,0,0,1,.94-.58H337a.55.55,0,0,1,.58.58v38.48a.55.55,0,0,1-.51.59h-6.66a.55.55,0,0,1-.58-.59V310.74h-.24l-7.34,16.73a1.11,1.11,0,0,1-1.11.76h-4a1.12,1.12,0,0,1-1.11-.76" transform="translate(-282.45 -275.67)" style="fill:#fff"/><path d="M343.5,333.65h25.83a.56.56,0,0,0,.58-.59v-6.46a.55.55,0,0,0-.53-.58H351.84a.31.31,0,0,1-.35-.35V294.59A.55.55,0,0,0,351,294H343.5a.55.55,0,0,0-.58.58v38.48a.55.55,0,0,0,.52.59h.06" transform="translate(-282.45 -275.67)" style="fill:#fff"/><path d="M391.42,309.8l-2.1-.29c-4.55-.64-6.18-2.1-6.18-4.37,0-2.51,1.81-4.31,5.31-4.31a16.37,16.37,0,0,1,9.21,3,.59.59,0,0,0,.81-.17h0l3.56-5.31c.29-.41.23-.64-.11-.87a22.41,22.41,0,0,0-13.47-4.14c-8.57,0-14,4.84-14,12.13,0,7,4.49,10.79,12.54,11.9l2.1.29c4.72.64,6.12,2.1,6.12,4.44,0,2.79-2.32,4.72-6.47,4.72a16.9,16.9,0,0,1-10.38-4.08.58.58,0,0,0-.82,0l-.05.06L373,327.87a.72.72,0,0,0,.06,1c3.09,3,9.09,5.42,15.28,5.42,10.26,0,15.57-5.31,15.57-12.47s-4.31-10.9-12.48-12" transform="translate(-282.45 -275.67)" style="fill:#fff"/><path d="M347.78,465.11A131.78,131.78,0,0,1,324,443.77L476.43,291.32V357.4A131.37,131.37,0,0,1,384,482.8a130.46,130.46,0,0,1-36.21-17.71m-29.69-28.56a130.63,130.63,0,0,1-26.54-79.14V284.77H470.1L318.19,436.68l-.1-.13M282.45,275.67V357.4a139.74,139.74,0,0,0,28.38,84.66l.87,1.12L285,469.84l6.44,6.44,26-26a140.49,140.49,0,0,0,65.19,41.7l1.3.39,1.3-.39A140.37,140.37,0,0,0,485.55,357.4V275.67Z" transform="translate(-282.45 -275.67)" style="fill:url(#b)"/></svg>